<?xml version="1.0" encoding="UTF-8" standalone="no"?>
<svg
   height="512pt"
   version="1.1"
   viewBox="0 0 512 512"
   width="512pt"
   id="svg20"
   sodipodi:docname="logo.svg"
   inkscape:version="1.4 (e7c3feb, 2024-10-09)"
   xmlns:inkscape="http://www.inkscape.org/namespaces/inkscape"
   xmlns:sodipodi="http://sodipodi.sourceforge.net/DTD/sodipodi-0.dtd"
   xmlns="http://www.w3.org/2000/svg"
   xmlns:svg="http://www.w3.org/2000/svg">
  <defs
     id="defs20" />
  <sodipodi:namedview
     id="namedview20"
     pagecolor="#505050"
     bordercolor="#eeeeee"
     borderopacity="1"
     inkscape:showpageshadow="0"
     inkscape:pageopacity="0"
     inkscape:pagecheckerboard="0"
     inkscape:deskcolor="#505050"
     inkscape:document-units="pt"
     inkscape:zoom="1.6977539"
     inkscape:cx="341.33333"
     inkscape:cy="341.33333"
     inkscape:window-width="2560"
     inkscape:window-height="1368"
     inkscape:window-x="0"
     inkscape:window-y="0"
     inkscape:window-maximized="1"
     inkscape:current-layer="svg20" />
  <path
     d="M 1.4187805,1.8985668 C 5.1092034,1.8830914 8.8727044,2.099745 11.741002,4.2817547 9.5669417,4.869814 7.3928806,5.4733486 5.2005504,6.061408 5.6024776,7.5315563 5.9861352,8.9862293 6.3880628,10.456377 5.3832447,22.155663 9.4025161,33.591871 9.4390554,45.27568 c 4.1106196,37.264392 4.2385046,74.79186 8.8423996,112.04079 1.443285,11.82307 0.93174,23.73902 2.046174,35.5621 0.420196,5.94251 5.024092,10.67792 8.878939,15.33598 8.257777,10.02795 16.33286,20.16424 25.284877,29.75889 8.80586,9.6875 16.058818,20.92253 27.111817,28.6911 2.375025,-1.47014 2.265409,-4.17831 1.498093,-6.3139 C 80.945563,253.80461 76.01282,248.15616 74.350303,241.45536 71.098348,228.98232 68.924286,216.23072 63.425191,204.25288 59.223223,192.02744 55.605879,179.55439 54.509713,166.81826 49.777933,143.09472 43.91345,119.54138 37.610501,96.080913 35.253746,89.472983 32.495064,82.880528 32.147944,75.901192 c 3.379842,2.243911 6.668338,4.611624 9.591445,7.28884 5.298131,9.501802 8.495281,20.272578 17.739606,27.762598 -1.059625,0.52616 -3.160609,1.56299 -4.201966,2.08915 7.490461,45.00201 19.036734,89.47787 26.472388,134.49537 1.625979,6.79363 7.25296,12.33377 8.440472,19.26667 1.826942,8.31022 6.028909,15.98593 10.541451,23.44501 1.71733,2.32128 -0.0549,4.89016 -0.58461,7.27336 C 84.964836,280.22086 71.098348,262.05292 55.752035,244.82898 43.401907,228.70377 28.494061,213.9868 16.984325,197.42831 15.449695,164.06367 12.197739,130.79189 9.6217506,97.473685 9.365978,76.288073 6.2601765,55.226263 5.0909339,34.087078 3.8486134,23.347258 4.1591936,12.49911 1.4187805,1.8985668 Z"
     fill="#5b0e0f"
     opacity="1"
     stroke="#5b0e0f"
     stroke-width="0.317163"
     id="path2" />
  <path
     d="m 505.41725,3.2139626 c 1.88175,-1.4237225 4.67698,-1.0058909 6.99719,-1.4701483 -2.33848,15.3359687 -2.4481,30.8112147 -4.51255,46.1626577 -0.76731,20.179721 -3.37983,40.26659 -4.18369,60.446318 -2.19232,15.10382 -1.33366,30.61003 -4.56736,45.54365 -7.10681,12.98373 -3.83658,28.01019 -5.93756,41.8296 -3.70868,4.70446 -10.10299,7.81497 -12.09436,13.46345 -2.13751,6.54602 -8.60489,10.94099 -12.62417,16.58946 -2.99618,4.05452 -6.39429,7.89238 -10.0299,11.54453 -4.16544,4.11641 -7.10681,9.40894 -13.13572,11.90046 -1.29712,-10.15176 1.5529,-20.17972 5.00583,-29.80532 3.01445,-7.9388 1.97309,-16.62041 6.0289,-24.31161 5.51737,-10.86362 1.75387,-22.85694 1.60772,-34.15387 2.5029,-11.08027 4.31158,-22.33077 8.42219,-33.10155 2.83177,-8.07808 3.80004,-16.48113 5.70006,-24.72944 1.99137,-8.789939 8.97029,-16.651365 7.67316,-25.951987 -3.61735,2.754593 -6.9241,5.803217 -9.60972,9.238721 11.32704,-27.143581 27.25798,-52.817013 37.65328,-80.2391492 -5.18852,2.120109 -10.32222,4.3175932 -15.76652,5.9115432 3.9462,-3.4664546 9.09819,-5.7103652 13.37322,-8.8673154 z"
     fill="#7b0b0a"
     opacity="1"
     stroke="#7b0b0a"
     stroke-width="0.317163"
     id="path3" />
  <path
     d="M 5.2005504,6.061408 C 7.3928806,5.4733486 9.5669417,4.869814 11.741002,4.2817547 36.532605,19.772475 61.945367,34.582286 87.467747,49.206393 113.61129,65.285174 139.7731,81.348479 166.24548,96.993953 l -1.0779,0.03095 -1.26057,-0.01548 c 2.26539,2.383194 4.62216,4.750917 6.21159,7.520987 5.9741,10.77076 13.75687,20.72134 20.02328,31.36831 8.82414,14.73244 18.32423,29.20178 28.9205,43.08309 5.80967,8.10902 10.10298,16.91444 16.004,24.97704 6.50393,9.79582 14.43284,18.9417 19.93194,29.20178 -4.43947,0.24761 -8.86067,0.52617 -13.30014,0.66545 -5.7914,-0.82019 -11.63762,-1.34636 -17.46556,-1.94988 -13.53765,-10.70888 -25.75989,-22.57839 -40.19273,-32.46707 -6.43083,-5.50919 -14.6338,-9.16135 -21.26559,-14.45388 -16.13191,-14.4384 -35.99076,-25.27108 -53.67556,-38.20838 C 99.781334,140.29368 91.541827,132.78819 81.913843,126.66 74.258956,121.61507 66.695417,116.44634 59.478995,110.95263 50.23467,103.46261 47.03752,92.691834 41.739389,83.190032 37.172035,70.639608 29.845997,59.002224 24.73056,46.622026 22.355535,40.880712 19.998781,35.108444 17.294907,29.475454 14.134297,22.9449 11.978505,15.888188 6.3880628,10.456377 5.9861352,8.9862293 5.6024776,7.5315563 5.2005504,6.061408 Z"
     fill="#de120d"
     opacity="1"
     stroke="#de120d"
     stroke-width="0.317163"
     id="path4" />
  <path
     d="m 492.04403,12.081278 c 5.4443,-1.59395 10.578,-3.7914342 15.76652,-5.9115432 -10.3953,27.4221362 -26.32624,53.0955682 -37.65328,80.2391492 -3.65388,6.778158 -6.83275,13.711066 -10.3953,20.520176 -4.82313,3.11053 -8.97028,6.85553 -13.26359,10.46127 -3.83659,2.38318 -7.32603,5.10683 -10.55972,8.04713 -5.53564,5.24609 -13.66553,7.78404 -19.23771,13.01468 -9.17124,8.40305 -19.84059,15.50619 -30.87531,22.05222 -6.1568,3.93072 -10.46838,9.67203 -17.19153,13.01469 -12.38667,6.871 -22.17908,16.49661 -34.12727,23.86283 -10.88858,6.57697 -19.58482,15.27407 -29.7609,22.54743 -5.49907,1.73322 -10.04816,4.84374 -14.77995,7.67571 -4.85968,2.75461 -10.88857,0.68091 -16.09536,-0.10835 2.41156,-6.42223 4.51255,-12.98372 8.31259,-18.94169 6.79622,-10.02796 11.08954,-21.09276 18.01364,-31.08977 4.7866,-9.30064 11.83859,-17.73464 15.30979,-27.51498 10.63279,-18.04415 21.9781,-35.85616 34.43785,-53.080105 -7.2895,-0.185702 -14.56074,0.154753 -21.81368,-0.417831 -29.21282,1.191593 -58.48043,0.371405 -87.7115,0.820188 -25.08391,-0.696386 -50.16781,0.139277 -75.25174,-0.247604 l 1.0779,-0.03095 c 13.11744,-0.866615 26.32624,-0.711863 39.46195,-0.386881 45.71009,0.417831 91.3471,-0.448782 137.05718,-0.23213 5.11544,0.495208 9.62799,-1.764177 13.68379,-4.116414 23.05601,-13.447989 45.92933,-27.128107 68.41899,-41.257006 14.23188,-7.907851 27.14835,-17.409651 41.61774,-25.007997 8.51355,-4.627098 16.27804,-10.41484 25.5589,-13.912247 z"
     fill="#df120d"
     opacity="1"
     stroke="#df120d"
     stroke-width="0.317163"
     id="path5" />
  <path
     d="m 6.3880628,10.456377 c 5.5904422,5.431811 7.7462342,12.488523 10.9068442,19.019077 2.703874,5.63299 5.060628,11.405258 7.435653,17.146572 5.115437,12.380198 12.441475,24.017582 17.008829,36.568006 -2.923107,-2.677216 -6.211603,-5.044929 -9.591445,-7.28884 0.34712,6.979336 3.105802,13.571791 5.462557,20.179721 6.302949,23.460467 12.167432,47.013807 16.899212,70.737347 1.096166,12.73613 4.71351,25.20918 8.915478,37.43462 5.499095,11.97784 7.673157,24.72944 10.925112,37.20248 1.662517,6.7008 6.59526,12.34925 8.751052,18.89528 0.767316,2.13559 0.876932,4.84376 -1.498093,6.3139 -11.052999,-7.76857 -18.305957,-19.0036 -27.111817,-28.6911 -8.952017,-9.59465 -17.0271,-19.73094 -25.284877,-29.75889 -3.854847,-4.65806 -8.458743,-9.39347 -8.878939,-15.33598 C 19.213195,181.05549 19.72474,169.13954 18.281455,157.31647 13.67756,120.06754 13.549675,82.540072 9.4390554,45.27568 9.4025161,33.591871 5.3832447,22.155663 6.3880628,10.456377 Z"
     fill="#7c0d0c"
     opacity="1"
     stroke="#7c0d0c"
     stroke-width="0.317163"
     id="path6" />
  <path
     d="m 470.15727,86.408884 c 2.68562,-3.435504 5.99237,-6.484128 9.60972,-9.238721 1.29713,9.300622 -5.68179,17.162048 -7.67316,25.951987 -1.90002,8.24831 -2.86829,16.65136 -5.70006,24.72944 -4.11061,10.77078 -5.91929,22.02128 -8.42219,33.10155 0.14615,11.29693 3.90965,23.29025 -1.60772,34.15387 -4.05581,7.6912 -3.01445,16.37281 -6.0289,24.31161 -3.45293,9.6256 -6.30295,19.65356 -5.00583,29.80532 6.02891,-2.49152 8.97028,-7.78405 13.13572,-11.90046 3.63561,-3.65215 7.03372,-7.49001 10.0299,-11.54453 4.01928,-5.64847 10.48666,-10.04344 12.62417,-16.58946 1.99137,-5.64848 8.38568,-8.75899 12.09436,-13.46345 2.10098,-13.81941 -1.16925,-28.84587 5.93756,-41.8296 1.04136,13.66464 -2.4481,27.32928 -2.00962,41.04035 0.18268,4.70446 -4.03756,8.32567 -6.70488,12.13258 -21.72234,25.51869 -42.98795,51.30045 -64.23529,77.09767 -5.00582,5.49373 -8.76933,11.8231 -14.77996,16.62042 0.25577,-2.21295 0.38366,-4.44138 1.04136,-6.60793 4.8414,-14.34556 12.953,-27.65426 20.86367,-40.91654 6.52219,-14.46936 9.55491,-29.80533 12.7886,-44.98655 6.9972,-23.47594 7.87411,-47.83397 14.1588,-71.43374 1.46155,-6.70078 1.0779,-13.68011 3.70869,-20.17972 1.84521,-4.79732 3.30676,-9.70297 4.34813,-14.67053 -2.8683,1.64039 -5.75488,3.24981 -8.56837,4.93661 3.56255,-6.80911 6.74142,-13.742018 10.3953,-20.520176 z"
     fill="#680e0d"
     opacity="1"
     stroke="#680e0d"
     stroke-width="0.317163"
     id="path7" />
  <path
     d="m 163.90701,97.009428 1.26057,0.01548 c 25.08393,0.386881 50.16783,-0.448782 75.25174,0.247605 29.23107,-0.448784 58.49868,0.371404 87.7115,-0.820189 7.25294,0.572584 14.52418,0.232129 21.81368,0.417832 -12.45975,17.223944 -23.80506,35.035954 -34.43785,53.080104 -3.85486,4.22473 -7.27124,8.71254 -10.02993,13.52535 -4.78658,8.17092 -10.88856,15.73832 -15.14535,24.12591 -3.19714,1.96535 -6.44909,4.05452 -10.23085,5.15324 -6.86932,-0.77375 -13.70208,-2.08914 -20.48003,-3.3117 -4.27505,-2.50698 -7.50874,-6.23652 -12.42321,-7.93879 -8.1847,-3.42002 -17.41075,-4.45687 -25.63198,-7.69119 -6.28469,-5.40087 -9.15299,-12.82899 -13.86651,-19.15836 -4.27503,-5.69489 -8.20295,-11.59095 -12.69725,-17.16205 -0.95001,-1.59395 -2.95963,-1.93441 -4.85966,-1.59395 -6.26641,-10.64696 -14.04918,-20.59755 -20.02328,-31.36831 -1.58943,-2.77007 -3.9462,-5.137792 -6.21159,-7.520977 z"
     fill="#890c0b"
     opacity="1"
     stroke="#890c0b"
     stroke-width="0.317163"
     id="path8" />
  <path
     d="m 189.86784,99.717592 c 15.60208,-0.943988 31.27725,-0.340455 46.91587,-0.154753 31.75225,0.06191 63.59585,-0.309499 95.29329,1.052321 -4.32986,5.01397 -12.25877,6.51508 -18.48865,9.4399 -13.70207,3.79144 -26.98394,8.63519 -39.7908,14.23722 -6.57698,3.00221 -13.92129,8.24831 -21.79541,5.3854 -10.08472,-3.46645 -19.91367,-7.52098 -30.49167,-9.87322 -8.8972,-4.03903 -19.03673,-5.89606 -27.31277,-10.89458 -3.90966,-2.16652 -7.74624,-4.47234 -11.38185,-6.96385 2.10099,-1.20707 4.43947,-2.197481 7.05199,-2.228438 z"
     fill="#b70c0a"
     opacity="1"
     stroke="#b70c0a"
     stroke-width="0.317163"
     id="path9" />
  <path
     d="m 459.76197,106.92906 c 2.81349,-1.6868 5.70007,-3.29622 8.56837,-4.93661 -1.04137,4.96756 -2.50292,9.87321 -4.34813,14.67053 -2.63079,6.49961 -2.24714,13.47894 -3.70869,20.17972 -6.28469,23.59977 -7.1616,47.9578 -14.1588,71.43374 -3.23369,15.18122 -6.26641,30.51719 -12.7886,44.98655 -7.91067,13.26228 -16.02227,26.57098 -20.86367,40.91654 -0.6577,2.16655 -0.78559,4.39498 -1.04136,6.60793 -0.12786,1.65586 -1.62598,2.90935 -2.57599,4.27116 -22.76369,25.87462 -43.57256,52.94082 -65.4776,79.32613 -19.58481,23.69259 -38.85905,47.5709 -58.11502,71.46468 -4.53082,5.3699 -8.02028,11.40527 -13.59246,16.10973 0.51156,-4.96755 0.7856,-9.98153 2.19234,-14.82528 6.66834,-22.71768 13.37323,-45.40438 20.24252,-68.06014 5.37121,-20.07139 10.8155,-40.12731 16.93576,-60.04395 1.11443,-3.29624 2.48463,-6.74721 5.60871,-9.09946 10.24913,-8.00069 22.30695,-14.06699 33.25033,-21.34035 22.67235,-13.21585 44.99759,-26.88049 67.41417,-40.43682 4.53081,-2.77008 9.75586,-4.95207 13.33667,-8.69708 3.27022,-7.41265 3.37984,-15.5062 5.77313,-23.13549 2.64907,-8.8209 3.4712,-17.8894 5.09718,-26.84955 4.23849,-19.08099 7.43564,-38.30124 10.72414,-57.49054 1.80867,-9.65656 5.57218,-19.09647 5.22505,-28.96967 -3.70868,1.3773 -7.39911,2.78555 -10.96164,4.3795 4.29331,-3.60574 8.44046,-7.35074 13.26359,-10.46127 z"
     fill="#4a0c0b"
     opacity="1"
     stroke="#4a0c0b"
     stroke-width="0.317163"
     id="path10" />
  <path
     d="m 55.277029,113.04178 c 1.041357,-0.52616 3.142341,-1.56299 4.201966,-2.08915 7.216422,5.49371 14.779961,10.66244 22.434848,15.70737 9.627984,6.12819 17.867491,13.63368 27.184897,20.08687 17.6848,12.9373 37.54365,23.76998 53.67556,38.20838 6.63179,5.29253 14.83476,8.94469 21.26559,14.45389 14.43284,9.88867 26.65508,21.75818 40.19273,32.46706 -1.1327,12.45757 -0.475,24.97704 -0.38366,37.46556 -0.14616,4.3795 1.11444,8.65067 3.32502,12.59685 9.17126,22.28435 15.27325,45.40438 23.89642,67.84348 1.38848,4.14737 2.9231,8.3102 5.77314,11.93141 1.82694,-2.0582 3.70869,-4.16283 4.58562,-6.66983 8.97029,-23.72354 15.82132,-47.98873 24.88294,-71.68133 1.84522,-3.11053 4.0741,-6.1901 4.32985,-9.74941 0.96829,-9.16134 2.50292,-18.32269 2.10099,-27.54594 -0.21923,-5.72583 -0.12787,-11.59096 2.21061,-17.03824 3.34331,-2.95577 6.55871,-6.03534 9.79239,-9.09944 10.17608,-7.27336 18.87232,-15.97046 29.7609,-22.54743 11.94819,-7.36622 21.7406,-16.99183 34.12727,-23.86283 6.72315,-3.34266 11.03473,-9.08397 17.19153,-13.01469 11.03472,-6.54603 21.70407,-13.64917 30.87531,-22.05222 5.57218,-5.23064 13.70207,-7.76859 19.23771,-13.01468 3.23369,-2.9403 6.72313,-5.66395 10.55972,-8.04713 3.56253,-1.59395 7.25296,-3.0022 10.96164,-4.3795 0.34713,9.8732 -3.41638,19.31311 -5.22505,28.96967 -3.2885,19.1893 -6.48565,38.40955 -10.72414,57.49054 -1.62598,8.96015 -2.44811,18.02865 -5.09718,26.84955 -2.39329,7.62929 -2.50291,15.72284 -5.77313,23.13549 -3.58081,3.74501 -8.80586,5.927 -13.33667,8.69708 -22.41658,13.55633 -44.74182,27.22097 -67.41417,40.43682 -10.94338,7.27336 -23.0012,13.33966 -33.25033,21.34035 -3.12408,2.35225 -4.49428,5.80322 -5.60871,9.09946 -6.12026,19.91664 -11.56455,39.97256 -16.93576,60.04395 -6.86929,22.65576 -13.57418,45.34246 -20.24252,68.06014 -1.40674,4.84375 -1.68078,9.85773 -2.19234,14.82528 -2.41155,3.4355 -5.57215,6.63888 -6.0289,10.80172 -1.77213,10.01248 -5.95583,19.49881 -8.75105,29.31011 -2.42982,-9.30061 -6.04716,-18.43101 -7.69142,-27.88638 -0.32885,-3.99263 -3.21542,-7.14957 -5.59045,-10.39937 -0.12788,-3.48193 -0.0366,-6.97933 -0.62115,-10.43033 -5.55391,-23.63068 -13.15399,-46.85903 -19.12809,-70.41237 -5.46255,-19.77734 -12.6607,-39.19879 -17.9223,-59.02257 -1.5529,-5.35444 -1.68079,-11.71477 -7.05199,-15.52168 -7.12507,-5.46276 -15.47421,-9.56369 -23.34833,-14.17533 -16.05882,-8.34115 -30.96666,-18.13697 -46.16681,-27.51498 C 113.22763,267.28355 97.388041,257.50321 81.749417,247.53715 74.313763,202.51965 62.76749,158.04379 55.277029,113.04178 Z"
     fill="#070208"
     opacity="1"
     stroke="#070208"
     stroke-width="0.317163"
     id="path11" />
  <path
     d="m 190.14188,135.89872 c 1.90003,-0.34046 3.90965,0 4.85966,1.59395 4.4943,5.5711 8.42222,11.46716 12.69725,17.16205 4.71352,6.32937 7.58182,13.75749 13.86651,19.15836 8.22123,3.23432 17.44728,4.27117 25.63198,7.69119 4.91447,1.70227 8.14816,5.43181 12.42321,7.93879 6.77795,1.22256 13.61071,2.53795 20.48003,3.3117 3.78176,-1.09872 7.03371,-3.18789 10.23085,-5.15324 -1.62597,3.1879 -3.30676,6.39127 -5.7914,9.17681 -8.47701,9.26968 -14.28669,19.96308 -21.24734,30.03746 -0.85865,1.77965 -3.10579,3.82239 -1.62597,5.80322 3.89138,1.14517 8.05682,1.23802 12.14917,1.43919 -10.61453,1.60943 -21.59447,2.05821 -32.11765,-0.23212 4.43947,-0.13927 8.86067,-0.41784 13.30014,-0.66545 -5.4991,-10.26007 -13.42801,-19.40595 -19.93194,-29.20178 -5.90102,-8.0626 -10.19433,-16.86802 -16.004,-24.97704 -10.59627,-13.8813 -20.09636,-28.35064 -28.9205,-43.08309 z"
     fill="#970c0c"
     opacity="1"
     stroke="#970c0c"
     stroke-width="0.317163"
     id="path12" />
  <path
     d="m 305.47672,163.47561 c 2.75869,-4.81281 6.17507,-9.30062 10.02993,-13.52535 -3.4712,9.78034 -10.52319,18.21434 -15.30979,27.51498 -6.9241,9.997 -11.21742,21.0618 -18.01364,31.08977 -3.80004,5.95796 -5.90103,12.51945 -8.31259,18.94168 5.20679,0.78924 11.23568,2.86294 16.09536,0.10835 4.73179,-2.83197 9.28088,-5.94248 14.77995,-7.6757 -3.23368,3.06409 -6.44908,6.14367 -9.79239,9.09943 -5.82796,4.34855 -13.9213,4.10095 -21.13772,5.02946 -4.09235,-0.20118 -8.25779,-0.29403 -12.14917,-1.4392 -1.47982,-1.98083 0.76732,-4.02357 1.62597,-5.80321 6.96065,-10.07438 12.77033,-20.76778 21.24734,-30.03746 2.48464,-2.78554 4.16543,-5.98892 5.7914,-9.17682 4.25679,-8.38758 10.35877,-15.95498 15.14535,-24.12591 z"
     fill="#be0c0b"
     opacity="1"
     stroke="#be0c0b"
     stroke-width="0.317163"
     id="path13" />
  <path
     d="m 381.03904,185.75996 c 0.89521,-4.33306 4.91448,-7.25789 8.98857,-9.61012 1.38848,1.94988 3.08753,3.94619 2.74041,6.39127 -0.0183,12.95278 -4.67698,25.53415 -12.16743,36.72276 -8.91549,6.871 -20.75407,11.11123 -32.73881,12.10163 -7.12508,-0.71185 -14.01265,-2.72364 -20.9733,-4.20926 -2.9231,-0.4333 -4.76831,-2.35223 -6.28467,-4.31758 1.35194,0.13927 4.05581,0.40236 5.38948,0.54163 11.56453,2.10463 23.80504,5.18421 35.4244,1.47015 13.90302,-3.49742 23.34831,-14.53128 25.75988,-26.33888 1.66252,-5.81869 1.90003,-11.85404 1.24232,-17.81201 -2.53945,1.60942 -5.06063,3.24981 -7.38085,5.06041 z"
     fill="#340204"
     opacity="1"
     stroke="#340204"
     stroke-width="0.317163"
     id="path14" />
  <path
     d="m 125.35852,180.96264 c 6.13852,1.26896 6.79623,7.6293 10.94338,10.95648 7.81932,6.88647 15.62036,14.19079 26.08874,18.18341 10.50491,6.28295 23.51274,8.0626 36.02729,9.00659 -2.83176,3.21884 -8.14816,3.07956 -12.14917,4.64257 -9.44528,3.43551 -19.91366,3.23433 -29.98011,2.77007 -11.80205,-0.61901 -20.77233,-8.55781 -26.52721,-16.65136 -4.80485,-8.96018 -6.30294,-19.20478 -4.40292,-28.90776 z"
     fill="#d91211"
     opacity="1"
     stroke="#d91211"
     stroke-width="0.317163"
     id="path15" />
  <path
     d="m 381.03904,185.75996 c 2.32022,-1.8106 4.8414,-3.45099 7.38085,-5.06041 0.65771,5.95797 0.4202,11.99332 -1.24232,17.81201 -0.0183,-4.33307 -0.43846,-8.65065 -0.98655,-12.95276 -2.75868,2.27484 -5.3164,4.70446 -7.47218,7.41262 -6.15681,8.07808 -15.43767,13.8813 -24.2618,19.7 -8.45874,5.38538 -19.27423,5.81869 -29.34069,6.99481 0.21924,0.92851 0.65769,2.78554 0.87694,3.71406 -1.33367,-0.13927 -4.03754,-0.40236 -5.38948,-0.54163 -2.13752,-0.1857 -7.43567,-1.40826 -4.05581,-3.65217 6.12026,-2.05821 12.89822,-1.9963 19.12807,-3.83786 18.47039,-4.96756 35.35134,-15.42882 45.36297,-29.58867 z"
     fill="#851415"
     opacity="1"
     stroke="#851415"
     stroke-width="0.317163"
     id="path16" />
  <path
     d="m 378.71884,192.97142 c 2.15578,-2.70816 4.7135,-5.13778 7.47218,-7.41262 0.54809,4.30211 0.96828,8.61969 0.98655,12.95276 -2.41157,11.8076 -11.85686,22.84146 -25.75988,26.33888 -11.61936,3.71406 -23.85987,0.63448 -35.4244,-1.47015 -0.21925,-0.92852 -0.6577,-2.78555 -0.87694,-3.71406 10.06646,-1.17612 20.88195,-1.60943 29.34069,-6.99481 8.82413,-5.8187 18.10499,-11.62192 24.2618,-19.7 z"
     fill="#d91312"
     opacity="1"
     stroke="#d91312"
     stroke-width="0.317163"
     id="path17" />
  <path
     d="m 273.81583,234.0582 c 7.21642,-0.92851 15.30976,-0.68091 21.13772,-5.02945 -2.33849,5.44728 -2.42984,11.31241 -2.21061,17.03824 0.40193,9.22325 -1.1327,18.3846 -2.10099,27.54594 -0.25575,3.55931 -2.48463,6.63888 -4.32985,9.74941 1.02309,-5.09136 3.92793,-11.01837 -0.21922,-15.66095 -6.50392,-8.23284 -14.3415,-15.61452 -21.77715,-23.22834 -1.82695,-1.70228 -3.526,-3.60573 -5.9741,-4.65805 -4.03754,-0.85114 -6.57699,2.4915 -8.86067,4.67352 -7.30776,7.76857 -14.43284,15.69191 -21.04637,23.89379 -3.67216,3.89976 -1.80867,9.08396 -1.26061,13.5563 -2.21058,-3.94618 -3.47118,-8.21735 -3.32502,-12.59685 -0.0913,-12.48852 -0.74904,-25.00799 0.38366,-37.46556 5.82794,0.60352 11.67416,1.1297 17.46556,1.94988 10.52318,2.29033 21.50312,1.84155 32.11765,0.23212 z"
     fill="#460b0a"
     opacity="1"
     stroke="#460b0a"
     stroke-width="0.317163"
     id="path18" />
  <path
     d="m 249.48096,244.48852 c 2.28368,-2.18202 4.82313,-5.52466 8.86067,-4.67352 2.4481,1.05232 4.14715,2.95577 5.9741,4.65805 7.43565,7.61382 15.27323,14.9955 21.77715,23.22834 4.14715,4.64258 1.24231,10.56959 0.21922,15.66095 -9.06162,23.6926 -15.91265,47.95779 -24.88294,71.68133 -0.87693,2.507 -2.75868,4.61163 -4.58562,6.66983 -2.85004,-3.62121 -4.38466,-7.78404 -5.77314,-11.93141 -8.62317,-22.4391 -14.72516,-45.55913 -23.89642,-67.84348 -0.54806,-4.47234 -2.41155,-9.65654 1.26061,-13.5563 6.61353,-8.20188 13.73861,-16.12522 21.04637,-23.89379 z"
     fill="#a60c07"
     opacity="1"
     stroke="#a60c07"
     stroke-width="0.317163"
     id="path19" />
  <path
     d="m 81.749417,247.53715 c 15.638624,9.96606 31.478213,19.7464 47.610113,29.17083 15.20015,9.37801 30.10799,19.17383 46.16681,27.51498 7.87412,4.61164 16.22326,8.71257 23.34833,14.17533 5.3712,3.80691 5.49909,10.16724 7.05199,15.52168 5.2616,19.82378 12.45975,39.24523 17.9223,59.02257 5.9741,23.55334 13.57418,46.78169 19.12809,70.41237 0.58461,3.451 0.49326,6.9484 0.62115,10.43033 -6.15679,-5.24612 -10.24914,-11.85404 -15.12708,-17.92034 -28.95702,-37.14058 -59.9237,-73.12053 -89.62977,-109.84328 -12.67897,-16.29545 -25.85122,-32.31232 -38.69462,-48.49943 0.5298,-2.3832 2.30194,-4.95208 0.58461,-7.27336 -4.512542,-7.45908 -8.714509,-15.13479 -10.541451,-23.44501 -1.187512,-6.9329 -6.814493,-12.47304 -8.440472,-19.26667 z"
     fill="#490c0c"
     opacity="1"
     stroke="#490c0c"
     stroke-width="0.317163"
     id="path20" />
</svg>
